<?xml version="1.0" standalone="no"?>
<!DOCTYPE svg PUBLIC "-//W3C//DTD SVG 20010904//EN"
 "http://www.w3.org/TR/2001/REC-SVG-20010904/DTD/svg10.dtd">
<svg version="1.0" xmlns="http://www.w3.org/2000/svg"
 width="638.000000pt" height="628.000000pt" viewBox="0 0 638.000000 628.000000"
 preserveAspectRatio="xMidYMid meet">

<g transform="translate(0.000000,628.000000) scale(0.100000,-0.100000)"
fill="#000000" stroke="none">
<path d="M3000 5889 c-571 -49 -1069 -241 -1509 -582 -141 -109 -374 -344
-486 -489 -94 -122 -215 -315 -284 -455 -259 -520 -345 -1154 -235 -1728 38
-197 70 -316 126 -465 169 -452 471 -870 849 -1174 1013 -814 2447 -818 3464
-10 141 112 368 341 468 472 357 466 547 1003 564 1588 17 596 -134 1137 -449
1614 -403 608 -1048 1040 -1768 1184 -227 46 -523 64 -740 45z m484 -204 c418
-49 786 -183 1134 -415 491 -326 830 -768 1016 -1325 91 -269 129 -511 129
-805 0 -215 -9 -303 -54 -523 -176 -882 -833 -1618 -1700 -1905 -293 -98 -480
-127 -809 -127 -262 0 -365 11 -585 61 -868 199 -1594 869 -1859 1714 -84 270
-119 493 -119 775 -1 211 9 313 49 513 179 889 822 1621 1684 1914 190 65 358
101 615 131 84 10 384 5 499 -8z"/>
<path d="M1470 3516 c0 -10 228 -503 286 -618 19 -37 34 -79 34 -92 0 -49 -66
-105 -154 -131 l-40 -12 0 -93 -1 -92 53 5 c76 8 184 61 235 116 62 67 166
252 256 459 32 74 32 74 15 110 -10 21 -20 72 -23 116 -4 51 -11 81 -18 84 -7
2 -13 -1 -13 -7 0 -6 -6 -8 -13 -6 -7 3 -40 -47 -88 -137 -41 -78 -80 -143
-85 -145 -9 -3 -148 271 -203 400 l-20 47 -111 0 c-60 0 -110 -2 -110 -4z"/>
<path d="M2164 3486 c-26 -12 -31 -59 -5 -54 9 2 16 10 16 18 0 8 4 21 9 28
11 18 5 20 -20 8z"/>
<path d="M2627 3117 c-24 -37 -104 -85 -153 -93 l-43 -6 16 -27 c26 -41 94
-111 135 -137 20 -13 64 -32 97 -44 122 -41 323 -18 394 45 33 29 34 35 5 32
-17 -1 -22 3 -20 16 2 11 -4 17 -15 17 -10 0 -24 9 -31 20 -7 12 -23 20 -40
20 -37 0 -46 10 -24 27 12 10 8 10 -15 -2 -44 -21 -138 -19 -188 4 -53 24 -76
51 -90 107 l-11 46 -17 -25z"/>
<path d="M2300 3120 c-8 -5 -34 -13 -57 -19 -24 -7 -43 -16 -43 -21 0 -13 23
-13 36 -1 5 6 37 4 84 -5 91 -17 112 -18 90 -4 -12 8 -11 10 6 10 11 0 25 -5
32 -12 6 -6 14 -9 17 -7 3 3 -7 11 -23 18 -15 8 -35 17 -44 22 -25 13 -31 11
-25 -5 4 -10 1 -13 -8 -9 -8 3 -13 8 -10 13 7 11 -38 28 -55 20z m30 -20 c0
-5 -2 -10 -4 -10 -3 0 -8 5 -11 10 -3 6 -1 10 4 10 6 0 11 -4 11 -10z"/>
<path d="M4594 2909 c44 -46 87 -92 95 -101 22 -24 100 -6 98 23 -1 12 -9 19
-22 19 -12 0 -46 23 -77 50 -31 28 -66 50 -78 50 -12 0 -18 5 -15 10 3 6 -3
10 -15 10 -12 0 -31 5 -43 11 -12 7 14 -26 57 -72z"/>
<path d="M3320 2895 l0 -82 38 -7 c20 -3 65 -6 100 -6 l62 0 -1 48 c-1 38 -2
42 -9 22 -4 -14 -8 -20 -9 -13 -1 6 -13 26 -27 43 -20 24 -29 28 -35 18 -6 -9
-9 -6 -9 11 0 17 -4 22 -17 17 -9 -4 -20 -1 -24 6 -5 7 -13 14 -19 14 -5 1
-11 2 -12 4 -2 1 -11 3 -20 5 -16 3 -18 -6 -18 -80z"/>
<path d="M4800 2830 c0 -5 5 -10 10 -10 6 0 10 5 10 10 0 6 -4 10 -10 10 -5 0
-10 -4 -10 -10z"/>
</g>
</svg>
